# xmcd
#
# Track frame offsets: 
#        182
#        9795
#        22197
#        38102
#        50652
#        77842
#        98270
#        116850
#        134397
#        168327
#        208725
#        224520
#        236412
#        258400
#        271987
#        294342
#        308712
#
# Disc length: 4476 seconds
#
# Revision: 26
# Processed by: cddbd v1.5.2PL0 Copyright (c) Steve Scherf et al.
# Submitted via: ExactAudioCopyFreeDBPlugin 1.0
#
DISCID=eb117a11
DTITLE=James Brown - Star Time [box set]
DYEAR=1991
DGENRE=Soul
TTITLE0=Papa's Got a Brand New Bag, Part 1
TTITLE1=I Got You (I Feel Good)
TTITLE2=Ain't That a Groove
TTITLE3=It's a Man's Man's Man's World
TTITLE4=Money Won't Change You
TTITLE5=Don't Be a Dropout
TTITLE6=Bring it Up (Hipster's Avenue)
TTITLE7=Let Yourself Go
TTITLE8=Cold Sweat
TTITLE9=Get it Together
TTITLE10=I Can't Stand Myself (When You Touch Me), Part 1
TTITLE11=I Got the Feelin'
TTITLE12=Licking Stick - Licking Stick
TTITLE13=Say it Loud, I'm Black and I'm Proud, Part 1
TTITLE14=There Was a Time (live)
TTITLE15=Give it Up or Turnit a Loose
TTITLE16=I Don't Want Nobody to Give Me Nothing (Open Up the Door I'll
TTITLE16=Get It Myself)
EXTD=YEAR: 1991
EXTT0=YEAR: 1965
EXTT1=YEAR: 1965
EXTT2=YEAR: 1965
EXTT3=YEAR: 1965
EXTT4=YEAR: 1966
EXTT5=YEAR: 1966
EXTT6=YEAR: 1966
EXTT7=YEAR: 1967
EXTT8=YEAR: 1967
EXTT9=YEAR: 1967
EXTT10=YEAR: 1967
EXTT11=YEAR: 1968
EXTT12=YEAR: 1968
EXTT13=YEAR: 1968
EXTT14=YEAR: 1968
EXTT15=YEAR: 1968
EXTT16=YEAR: 1969
PLAYORDER=
